<svg xmlns="http://www.w3.org/2000/svg" width="68" height="88" fill="none" viewBox="0 0 68 88"><path fill="currentColor" d="M33.335.728c6.704 0 12.33 1.164 16.875 3.494 4.574 2.33 8.026 5.596 10.355 9.8 2.358 4.177 3.538 9.05 3.538 14.618 0 5.596-1.194 10.454-3.58 14.573-2.359 4.09-5.839 7.258-10.441 9.503a27.8 27.8 0 0 1-1.661.732L67.298 88H49.656l-17.15-31.96H16.418V88H.608V.728h32.727ZM16.418 42.915h14.573c3.92 0 7.131-.54 9.631-1.62 2.5-1.107 4.347-2.712 5.54-4.815 1.222-2.13 1.832-4.744 1.832-7.84 0-3.097-.61-5.74-1.832-7.927-1.221-2.216-3.083-3.892-5.583-5.028-2.5-1.165-5.724-1.748-9.673-1.748H16.418v28.978Z"/></svg>
